CalSansText-Regular.ufo
<glyph name="R" format="2">
  <advance width="591.25"/>
  <unicode hex="0052"/>
  <anchor x="304.5" y="0.0" name="bottom"/>
  <anchor x="448.75" y="0.0" name="ogonek"/>
  <anchor x="279.5" y="700.0" name="top"/>
  <outline>
    <contour>
      <point x="81.5" y="0.0" type="line"/>
      <point x="178.0" y="0.0" type="line"/>
      <point x="178.0" y="297.5" type="line"/>
      <point x="259.5" y="297.5" type="line"/>
      <point x="272.75" y="271.0"/>
      <point x="284.5" y="251.25"/>
      <point x="295.25" y="234.75" type="curve" smooth="yes"/>
      <point x="448.75" y="0.0" type="line"/>
      <point x="565.75" y="0.0" type="line"/>
      <point x="366.0" y="306.25" type="line"/>
      <point x="463.75" y="320.75"/>
      <point x="545.25" y="386.5"/>
      <point x="545.25" y="499.75" type="curve" smooth="yes"/>
      <point x="545.25" y="630.5"/>
      <point x="440.25" y="700.0"/>
      <point x="308.75" y="700.0" type="curve" smooth="yes"/>
      <point x="81.5" y="700.0" type="line"/>
    </contour>
    <contour>
      <point x="178.0" y="387.0" type="line"/>
      <point x="178.0" y="609.25" type="line"/>
      <point x="294.5" y="609.25" type="line" smooth="yes"/>
      <point x="387.0" y="609.25"/>
      <point x="445.25" y="580.25"/>
      <point x="445.25" y="499.5" type="curve" smooth="yes"/>
      <point x="445.25" y="416.25"/>
      <point x="387.0" y="387.0"/>
      <point x="294.5" y="387.0" type="curve" smooth="yes"/>
    </contour>
  </outline>
</glyph>
<glyph name="U" format="2">
  <advance width="699.25"/>
  <unicode hex="0055"/>
  <anchor x="349.25" y="0.0" name="bottom"/>
  <anchor x="361.0" y="0.0" name="ogonek"/>
  <anchor x="349.25" y="684.0" name="top"/>
  <anchor x="349.25" y="647.0" name="top_ring"/>
  <anchor x="640.25" y="700.0" name="topright"/>
  <outline>
    <contour>
      <point x="349.25" y="-13.0" type="curve" smooth="yes"/>
      <point x="520.25" y="-13.0"/>
      <point x="627.75" y="99.75"/>
      <point x="627.75" y="264.25" type="curve" smooth="yes"/>
      <point x="627.75" y="700.0" type="line"/>
      <point x="529.75" y="700.0" type="line"/>
      <point x="529.75" y="266.5" type="line" smooth="yes"/>
      <point x="529.75" y="145.75"/>
      <point x="465.5" y="77.25"/>
      <point x="349.25" y="77.25" type="curve" smooth="yes"/>
      <point x="233.75" y="77.25"/>
      <point x="169.5" y="147.25"/>
      <point x="169.5" y="271.75" type="curve" smooth="yes"/>
      <point x="169.5" y="700.0" type="line"/>
      <point x="71.5" y="700.0" type="line"/>
      <point x="71.5" y="259.0" type="line" smooth="yes"/>
      <point x="71.5" y="99.75"/>
      <point x="178.25" y="-13.0"/>
    </contour>
  </outline>
</glyph>
<glyph name="z" format="2">
  <advance width="532.75"/>
  <unicode hex="007A"/>
  <anchor x="261.25" y="0.0" name="bottom"/>
  <anchor x="479.25" y="0.0" name="ogonek"/>
  <anchor x="261.25" y="493.75" name="top"/>
  <outline>
    <contour>
      <point x="45.5" y="0.0" type="line"/>
      <point x="479.25" y="0.0" type="line"/>
      <point x="479.25" y="84.0" type="line"/>
      <point x="201.0" y="84.0" type="line"/>
      <point x="201.0" y="86.0" type="line"/>
      <point x="213.25" y="95.25"/>
      <point x="221.25" y="106.0"/>
      <point x="239.0" y="131.25" type="curve" smooth="yes"/>
      <point x="483.25" y="478.75" type="line"/>
      <point x="483.25" y="493.75" type="line"/>
      <point x="55.5" y="493.75" type="line"/>
      <point x="55.5" y="409.75" type="line"/>
      <point x="330.75" y="409.75" type="line"/>
      <point x="330.75" y="407.75" type="line"/>
      <point x="318.25" y="398.25"/>
      <point x="308.25" y="384.75"/>
      <point x="288.75" y="357.5" type="curve" smooth="yes"/>
      <point x="45.5" y="15.0" type="line"/>
    </contour>
  </outline>
</glyph>
<glyph name="degree" format="2">
  <advance width="429.0"/>
  <unicode hex="00B0"/>
  <outline>
    <contour>
      <point x="214.0" y="388.0" type="curve" smooth="yes"/>
      <point x="306.75" y="388.0"/>
      <point x="375.75" y="459.0"/>
      <point x="375.75" y="547.0" type="curve" smooth="yes"/>
      <point x="375.75" y="635.0"/>
      <point x="307.75" y="710.0"/>
      <point x="214.0" y="710.0" type="curve" smooth="yes"/>
      <point x="120.25" y="710.0"/>
      <point x="53.25" y="637.0"/>
      <point x="53.25" y="547.0" type="curve" smooth="yes"/>
      <point x="53.25" y="459.0"/>
      <point x="120.25" y="388.0"/>
    </contour>
    <contour>
      <point x="214.0" y="447.25" type="curve" smooth="yes"/>
      <point x="158.75" y="447.25"/>
      <point x="119.25" y="491.5"/>
      <point x="119.25" y="546.25" type="curve" smooth="yes"/>
      <point x="119.25" y="605.5"/>
      <point x="158.75" y="650.5"/>
      <point x="214.0" y="650.5" type="curve" smooth="yes"/>
      <point x="269.25" y="650.5"/>
      <point x="308.0" y="605.5"/>
      <point x="308.0" y="546.25" type="curve" smooth="yes"/>
      <point x="309.75" y="490.5"/>
      <point x="270.25" y="447.25"/>
    </contour>
  </outline>
</glyph>
<glyph name="plusminus" format="2">
  <advance width="596.0"/>
  <unicode hex="00B1"/>
  <outline>
    <contour>
      <point x="70.25" y="381.25" type="line"/>
      <point x="522.25" y="381.25" type="line"/>
      <point x="522.25" y="462.75" type="line"/>
      <point x="70.25" y="462.75" type="line"/>
    </contour>
    <contour>
      <point x="70.25" y="95.25" type="line"/>
      <point x="522.25" y="95.25" type="line"/>
      <point x="522.25" y="176.75" type="line"/>
      <point x="70.25" y="176.75" type="line"/>
    </contour>
    <contour>
      <point x="251.0" y="234.0" type="line"/>
      <point x="341.5" y="234.0" type="line"/>
      <point x="341.5" y="610.0" type="line"/>
      <point x="251.0" y="610.0" type="line"/>
    </contour>
  </outline>
</glyph>
<glyph name="ordmasculine" format="2">
  <advance width="508.5"/>
  <unicode hex="00BA"/>
  <outline>
    <contour>
      <point x="254.25" y="312.0" type="curve" smooth="yes"/>
      <point x="374.25" y="312.0"/>
      <point x="455.0" y="404.0"/>
      <point x="455.0" y="512.0" type="curve" smooth="yes"/>
      <point x="455.0" y="621.0"/>
      <point x="374.25" y="713.0"/>
      <point x="254.25" y="713.0" type="curve" smooth="yes"/>
      <point x="134.25" y="713.0"/>
      <point x="53.5" y="621.0"/>
      <point x="53.5" y="512.0" type="curve" smooth="yes"/>
      <point x="53.5" y="404.0"/>
      <point x="134.25" y="312.0"/>
    </contour>
    <contour>
      <point x="254.25" y="381.5" type="curve" smooth="yes"/>
      <point x="178.0" y="381.5"/>
      <point x="130.0" y="437.5"/>
      <point x="130.0" y="512.0" type="curve" smooth="yes"/>
      <point x="130.0" y="585.75"/>
      <point x="178.0" y="643.5"/>
      <point x="254.25" y="643.5" type="curve" smooth="yes"/>
      <point x="329.5" y="643.5"/>
      <point x="377.5" y="585.75"/>
      <point x="377.5" y="512.0" type="curve" smooth="yes"/>
      <point x="377.5" y="437.5"/>
      <point x="329.5" y="381.5"/>
    </contour>
    <contour>
      <point x="73.75" y="190.0" type="line"/>
      <point x="434.75" y="190.0" type="line"/>
      <point x="434.75" y="256.0" type="line"/>
      <point x="73.75" y="256.0" type="line"/>
    </contour>
  </outline>
</glyph>
<glyph name="AE" format="2">
  <advance width="998.0"/>
  <unicode hex="00C6"/>
  <anchor x="574.5" y="0.0" name="bottom"/>
  <anchor x="871.0" y="0.0" name="ogonek"/>
  <anchor x="574.5" y="700.0" name="top"/>
  <anchor x="563.75" y="700.0" name="top_ring"/>
  <outline>
    <contour>
      <point x="12.5" y="0.0" type="line"/>
      <point x="129.0" y="0.0" type="line"/>
      <point x="241.25" y="174.25" type="line"/>
      <point x="260.5" y="207.75" type="line"/>
      <point x="441.5" y="486.25" type="line" smooth="yes"/>
      <point x="479.5" y="543.5"/>
      <point x="504.75" y="583.5"/>
      <point x="522.0" y="623.25" type="curve"/>
      <point x="497.75" y="610.0" type="line"/>
      <point x="594.0" y="610.0" type="line"/>
      <point x="573.0" y="700.0" type="line"/>
      <point x="479.5" y="700.0" type="line"/>
    </contour>
    <contour>
      <point x="179.25" y="150.25" type="line"/>
      <point x="586.5" y="150.25" type="line"/>
      <point x="586.5" y="241.0" type="line"/>
      <point x="214.5" y="241.0" type="line"/>
    </contour>
    <component base="E" xOffset="445.25"/>
  </outline>
</glyph>
<glyph name="oe" format="2">
  <advance width="966.5"/>
  <unicode hex="0153"/>
  <anchor x="495.0" y="0.0" name="bottom"/>
  <anchor x="495.0" y="493.75" name="top"/>
  <outline>
    <contour>
      <point x="289.75" y="-13.0" type="curve" smooth="yes"/>
      <point x="436.75" y="-13.0"/>
      <point x="537.5" y="96.5"/>
      <point x="537.5" y="247.5" type="curve" smooth="yes"/>
      <point x="537.5" y="398.0"/>
      <point x="436.75" y="506.75"/>
      <point x="289.75" y="506.75" type="curve" smooth="yes"/>
      <point x="143.5" y="506.75"/>
      <point x="37.0" y="397.25"/>
      <point x="37.0" y="246.0" type="curve" smooth="yes"/>
      <point x="37.0" y="95.75"/>
      <point x="143.5" y="-13.0"/>
    </contour>
    <contour>
      <point x="289.75" y="73.25" type="curve" smooth="yes"/>
      <point x="193.5" y="73.25"/>
      <point x="130.75" y="147.0"/>
      <point x="130.75" y="246.75" type="curve" smooth="yes"/>
      <point x="130.75" y="348.25"/>
      <point x="193.5" y="420.5"/>
      <point x="289.75" y="420.5" type="curve" smooth="yes"/>
      <point x="386.0" y="420.5"/>
      <point x="449.5" y="346.75"/>
      <point x="449.5" y="246.75" type="curve" smooth="yes"/>
      <point x="449.5" y="145.5"/>
      <point x="386.0" y="73.25"/>
    </contour>
    <contour>
      <point x="701.5" y="-13.0" type="curve" smooth="yes"/>
      <point x="791.0" y="-13.0"/>
      <point x="865.5" y="20.75"/>
      <point x="910.75" y="78.75" type="curve"/>
      <point x="845.75" y="138.0" type="line"/>
      <point x="813.0" y="93.0"/>
      <point x="766.5" y="72.5"/>
      <point x="703.0" y="72.5" type="curve" smooth="yes"/>
      <point x="610.75" y="72.5"/>
      <point x="544.0" y="140.25"/>
      <point x="541.0" y="234.5" type="curve"/>
      <point x="540.75" y="248.75" type="line"/>
      <point x="540.0" y="360.75"/>
      <point x="602.5" y="424.0"/>
      <point x="697.0" y="424.0" type="curve" smooth="yes"/>
      <point x="796.5" y="424.0"/>
      <point x="847.25" y="353.25"/>
      <point x="843.5" y="250.0" type="curve"/>
      <point x="874.5" y="292.0" type="line"/>
      <point x="496.5" y="292.0" type="line"/>
      <point x="496.5" y="214.5" type="line"/>
      <point x="935.0" y="214.5" type="line"/>
      <point x="937.25" y="223.5"/>
      <point x="937.5" y="238.25"/>
      <point x="937.5" y="250.0" type="curve" smooth="yes"/>
      <point x="937.5" y="401.75"/>
      <point x="846.25" y="506.75"/>
      <point x="699.0" y="506.75" type="curve" smooth="yes"/>
      <point x="552.5" y="506.75"/>
      <point x="452.75" y="398.75"/>
      <point x="452.75" y="246.75" type="curve" smooth="yes"/>
      <point x="452.75" y="96.75"/>
      <point x="549.25" y="-13.0"/>
    </contour>
    <contour>
      <point x="475.0" y="404.0" type="line"/>
      <point x="475.0" y="90.0" type="line"/>
      <point x="513.25" y="90.0" type="line"/>
      <point x="513.25" y="404.0" type="line"/>
    </contour>
  </outline>
</glyph>
<glyph name="ringcomb" format="2">
  <unicode hex="030A"/>
  <anchor x="0.0" y="493.75" name="_top"/>
  <anchor x="0.0" y="723.5" name="top"/>
  <outline>
    <contour>
      <point x="0.0" y="550.5" type="curve" smooth="yes"/>
      <point x="59.0" y="550.5"/>
      <point x="107.75" y="597.5"/>
      <point x="107.75" y="655.5" type="curve" smooth="yes"/>
      <point x="107.75" y="713.5"/>
      <point x="59.0" y="760.5"/>
      <point x="0.0" y="760.5" type="curve" smooth="yes"/>
      <point x="-58.0" y="760.5"/>
      <point x="-107.75" y="713.5"/>
      <point x="-107.75" y="655.5" type="curve" smooth="yes"/>
      <point x="-107.75" y="597.5"/>
      <point x="-58.0" y="550.5"/>
    </contour>
    <contour>
      <point x="0.0" y="602.5" type="curve" smooth="yes"/>
      <point x="-29.75" y="602.5"/>
      <point x="-50.75" y="626.5"/>
      <point x="-50.75" y="655.5" type="curve" smooth="yes"/>
      <point x="-50.75" y="686.0"/>
      <point x="-29.75" y="707.5"/>
      <point x="0.0" y="707.5" type="curve" smooth="yes"/>
      <point x="29.75" y="707.5"/>
      <point x="50.75" y="686.0"/>
      <point x="50.75" y="655.5" type="curve" smooth="yes"/>
      <point x="50.75" y="626.5"/>
      <point x="29.75" y="602.5"/>
    </contour>
  </outline>
</glyph>
<glyph name="cedillacomb" format="2">
  <unicode hex="0327"/>
  <anchor x="1.75" y="4.5" name="_bottom"/>
  <anchor x="59.5" y="-201.75" name="bottom"/>
  <outline>
    <contour>
      <point x="-18.75" y="-220.75" type="curve" smooth="yes"/>
      <point x="40.25" y="-220.75"/>
      <point x="87.5" y="-185.5"/>
      <point x="87.5" y="-127.75" type="curve" smooth="yes"/>
      <point x="87.5" y="-81.75"/>
      <point x="54.25" y="-46.75"/>
      <point x="5.0" y="-48.75" type="curve"/>
      <point x="12.25" y="-70.25" type="line"/>
      <point x="46.25" y="4.5" type="line"/>
      <point x="-1.25" y="17.5" type="line"/>
      <point x="-48.5" y="-90.0" type="line"/>
      <point x="-45.25" y="-93.0" type="line"/>
      <point x="-38.5" y="-91.0"/>
      <point x="-31.0" y="-90.0"/>
      <point x="-21.0" y="-90.0" type="curve" smooth="yes"/>
      <point x="4.5" y="-90.0"/>
      <point x="24.25" y="-101.75"/>
      <point x="24.25" y="-124.25" type="curve" smooth="yes"/>
      <point x="24.25" y="-145.25"/>
      <point x="9.5" y="-161.25"/>
      <point x="-21.0" y="-161.25" type="curve" smooth="yes"/>
      <point x="-42.0" y="-161.25"/>
      <point x="-60.25" y="-152.75"/>
      <point x="-75.0" y="-136.75" type="curve"/>
      <point x="-110.5" y="-185.0" type="line"/>
      <point x="-83.75" y="-210.0"/>
      <point x="-56.0" y="-220.75"/>
    </contour>
  </outline>
</glyph>
<glyph name="minute" format="2">
  <advance width="288.5"/>
  <unicode hex="2032"/>
  <outline>
    <contour>
      <point x="90.25" y="433.0" type="line"/>
      <point x="146.25" y="433.0" type="line"/>
      <point x="223.25" y="700.0" type="line"/>
      <point x="102.25" y="700.0" type="line"/>
    </contour>
  </outline>
</glyph>
<glyph name="product" format="2">
  <advance width="668.5"/>
  <unicode hex="220F"/>
  <outline>
    <contour>
      <point x="445.75" y="-220.0" type="line"/>
      <point x="522.75" y="-220.0" type="line"/>
      <point x="522.75" y="700.0" type="line"/>
      <point x="445.75" y="700.0" type="line"/>
    </contour>
    <contour>
      <point x="145.75" y="-220.0" type="line"/>
      <point x="222.75" y="-220.0" type="line"/>
      <point x="222.75" y="700.0" type="line"/>
      <point x="145.75" y="700.0" type="line"/>
    </contour>
    <contour>
      <point x="45.25" y="629.0" type="line"/>
      <point x="623.25" y="629.0" type="line"/>
      <point x="623.25" y="700.0" type="line"/>
      <point x="45.25" y="700.0" type="line"/>
    </contour>
  </outline>
</glyph>
<glyph name="greaterequal" format="2">
  <advance width="596.0"/>
  <unicode hex="2265"/>
  <outline>
    <contour>
      <point x="65.0" y="220.0" type="line"/>
      <point x="544.0" y="430.0" type="line"/>
      <point x="65.0" y="640.0" type="line"/>
      <point x="65.0" y="547.25" type="line"/>
      <point x="352.5" y="432.5" type="line"/>
      <point x="352.5" y="429.0" type="line"/>
      <point x="65.25" y="312.75" type="line"/>
    </contour>
    <contour>
      <point x="65.0" y="95.25" type="line"/>
      <point x="517.0" y="95.25" type="line"/>
      <point x="517.0" y="176.75" type="line"/>
      <point x="65.0" y="176.75" type="line"/>
    </contour>
  </outline>
</glyph>
<glyph name="D.circled" format="2">
  <advance width="897.25"/>
  <unicode hex="24B9"/>
  <anchor x="438.938" y="120.0" name="bottom"/>
  <anchor x="305.382" y="354.0743" name="center"/>
  <anchor x="451.394" y="589.49" name="top"/>
  <outline>
    <contour>
      <point x="448.5" y="-50.0" type="curve" smooth="yes"/>
      <point x="671.25" y="-50.0"/>
      <point x="845.5" y="129.0"/>
      <point x="845.5" y="352.0" type="curve" smooth="yes"/>
      <point x="845.5" y="575.5"/>
      <point x="671.5" y="753.75"/>
      <point x="448.5" y="753.75" type="curve" smooth="yes"/>
      <point x="225.75" y="753.75"/>
      <point x="51.75" y="575.5"/>
      <point x="51.75" y="352.0" type="curve" smooth="yes"/>
      <point x="51.75" y="129.0"/>
      <point x="225.75" y="-50.0"/>
    </contour>
    <contour>
      <point x="448.5" y="17.25" type="curve" smooth="yes"/>
      <point x="265.25" y="17.25"/>
      <point x="123.75" y="167.75"/>
      <point x="123.75" y="352.0" type="curve" smooth="yes"/>
      <point x="123.75" y="535.25"/>
      <point x="265.25" y="685.75"/>
      <point x="448.5" y="685.75" type="curve" smooth="yes"/>
      <point x="632.75" y="685.75"/>
      <point x="773.5" y="535.25"/>
      <point x="773.5" y="352.0" type="curve" smooth="yes"/>
      <point x="773.5" y="167.75"/>
      <point x="632.5" y="17.25"/>
    </contour>
    <component base="D" xScale="0.692" yScale="0.6707" xOffset="213.0" yOffset="120.0"/>
  </outline>
</glyph>
<glyph name="rightWhiteTriangle" format="2">
  <advance width="823.0"/>
  <unicode hex="25B7"/>
  <outline>
    <contour>
      <point x="90.0" y="-54.0" type="line"/>
      <point x="803.0" y="357.0" type="line"/>
      <point x="90.0" y="768.0" type="line"/>
    </contour>
    <contour>
      <point x="166.0" y="637.0" type="line"/>
      <point x="652.0" y="357.0" type="line"/>
      <point x="166.0" y="76.0" type="line"/>
    </contour>
  </outline>
</glyph>
<glyph name="heavyBallotX" format="2">
  <advance width="600.0"/>
  <unicode hex="2718"/>
  <outline>
    <contour>
      <point x="159.75" y="158.75" type="curve" smooth="yes"/>
      <point x="244.5" y="235.75"/>
      <point x="423.25" y="464.25"/>
      <point x="459.75" y="570.0" type="curve" smooth="yes"/>
      <point x="469.0" y="596.5"/>
      <point x="447.0" y="609.5"/>
      <point x="432.75" y="589.0" type="curve" smooth="yes"/>
      <point x="334.25" y="447.0"/>
      <point x="177.0" y="253.0"/>
      <point x="127.75" y="177.75" type="curve" smooth="yes"/>
      <point x="110.0" y="150.75"/>
      <point x="135.5" y="137.0"/>
    </contour>
    <contour>
      <point x="411.75" y="174.75" type="curve" smooth="yes"/>
      <point x="427.5" y="152.5"/>
      <point x="451.5" y="156.5"/>
      <point x="465.25" y="185.0" type="curve" smooth="yes"/>
      <point x="474.75" y="204.25"/>
      <point x="475.5" y="232.0"/>
      <point x="466.5" y="245.5" type="curve" smooth="yes"/>
      <point x="431.25" y="303.0"/>
      <point x="245.25" y="515.75"/>
      <point x="206.0" y="577.25" type="curve" smooth="yes"/>
      <point x="190.5" y="599.5"/>
      <point x="166.5" y="595.25"/>
      <point x="152.5" y="567.0" type="curve" smooth="yes"/>
      <point x="143.25" y="547.75"/>
      <point x="142.5" y="519.75"/>
      <point x="151.5" y="506.5" type="curve" smooth="yes"/>
      <point x="186.75" y="448.75"/>
      <point x="372.75" y="236.25"/>
    </contour>
  </outline>
</glyph>
<glyph name="guarani.tf" format="2">
  <advance width="596.0"/>
  <outline>
    <contour>
      <point x="306.25" y="18.75" type="curve" smooth="yes"/>
      <point x="480.25" y="18.75"/>
      <point x="588.75" y="147.5"/>
      <point x="588.75" y="326.75" type="curve" smooth="yes"/>
      <point x="588.75" y="344.0"/>
      <point x="587.5" y="363.25"/>
      <point x="585.25" y="376.25" type="curve"/>
      <point x="274.25" y="376.25" type="line"/>
      <point x="274.25" y="299.75" type="line"/>
      <point x="525.0" y="299.75" type="line"/>
      <point x="494.75" y="316.75" type="line"/>
      <point x="491.0" y="188.25"/>
      <point x="422.25" y="103.25"/>
      <point x="307.75" y="103.25" type="curve" smooth="yes"/>
      <point x="190.5" y="103.25"/>
      <point x="105.0" y="211.25"/>
      <point x="105.0" y="352.75" type="curve" smooth="yes"/>
      <point x="105.0" y="494.25"/>
      <point x="186.0" y="604.0"/>
      <point x="307.75" y="604.0" type="curve" smooth="yes"/>
      <point x="378.0" y="604.0"/>
      <point x="417.25" y="582.25"/>
      <point x="457.75" y="528.25" type="curve"/>
      <point x="527.5" y="583.5" type="line"/>
      <point x="466.0" y="659.5"/>
      <point x="408.0" y="688.5"/>
      <point x="306.25" y="688.5" type="curve" smooth="yes"/>
      <point x="135.0" y="688.5"/>
      <point x="9.25" y="541.75"/>
      <point x="9.25" y="352.75" type="curve" smooth="yes"/>
      <point x="9.25" y="164.5"/>
      <point x="138.0" y="18.75"/>
    </contour>
    <contour>
      <point x="279.0" y="658.0" type="line"/>
      <point x="352.75" y="658.0" type="line"/>
      <point x="352.75" y="775.0" type="line"/>
      <point x="279.0" y="775.0" type="line"/>
    </contour>
    <contour>
      <point x="279.0" y="-69.0" type="line"/>
      <point x="352.75" y="-69.0" type="line"/>
      <point x="352.75" y="48.0" type="line"/>
      <point x="279.0" y="48.0" type="line"/>
    </contour>
  </outline>
</glyph>
<glyph name="hookabovecomb.case" format="2">
  <anchor x="0.0" y="700.0" name="_top"/>
  <anchor x="0.0" y="876.25" name="top"/>
  <outline>
    <contour>
      <point x="-36.0" y="735.5" type="curve"/>
      <point x="39.0" y="735.5" type="line"/>
      <point x="52.0" y="745.25"/>
      <point x="72.0" y="767.5"/>
      <point x="72.0" y="802.25" type="curve" smooth="yes"/>
      <point x="72.0" y="852.75"/>
      <point x="32.75" y="893.5"/>
      <point x="-31.75" y="893.5" type="curve" smooth="yes"/>
      <point x="-69.0" y="893.5"/>
      <point x="-94.25" y="878.75"/>
      <point x="-109.5" y="868.75" type="curve"/>
      <point x="-76.5" y="818.75" type="line"/>
      <point x="-67.75" y="826.75"/>
      <point x="-52.5" y="832.75"/>
      <point x="-35.25" y="832.75" type="curve" smooth="yes"/>
      <point x="-9.25" y="832.75"/>
      <point x="6.25" y="818.0"/>
      <point x="6.25" y="795.25" type="curve" smooth="yes"/>
      <point x="6.25" y="775.75"/>
      <point x="-7.0" y="756.5"/>
    </contour>
  </outline>
</glyph>
<glyph name="seven.numr" format="2">
  <advance width="292.75"/>
  <outline>
    <contour>
      <point x="71.25" y="313.5" type="line"/>
      <point x="136.25" y="313.5" type="line"/>
      <point x="285.75" y="687.0" type="line"/>
      <point x="285.75" y="700.0" type="line"/>
      <point x="21.0" y="700.0" type="line"/>
      <point x="21.0" y="645.5" type="line"/>
      <point x="203.0" y="645.5" type="line"/>
      <point x="203.0" y="644.5" type="line"/>
      <point x="201.0" y="641.5"/>
      <point x="198.75" y="638.25"/>
      <point x="196.75" y="633.25" type="curve" smooth="yes"/>
    </contour>
  </outline>
</glyph>
<glyph name="zero.numr" format="2">
  <advance width="346.5"/>
  <outline>
    <contour>
      <point x="173.25" y="308.0" type="curve" smooth="yes"/>
      <point x="254.0" y="308.0"/>
      <point x="312.0" y="368.25"/>
      <point x="312.0" y="450.5" type="curve" smooth="yes"/>
      <point x="312.0" y="568.0" type="line" smooth="yes"/>
      <point x="312.0" y="640.5"/>
      <point x="260.0" y="706.0"/>
      <point x="173.25" y="706.0" type="curve" smooth="yes"/>
      <point x="97.25" y="706.0"/>
      <point x="34.5" y="650.5"/>
      <point x="34.5" y="566.5" type="curve" smooth="yes"/>
      <point x="34.5" y="447.5" type="line" smooth="yes"/>
      <point x="34.5" y="368.75"/>
      <point x="91.25" y="308.0"/>
    </contour>
    <contour>
      <point x="173.25" y="364.25" type="curve" smooth="yes"/>
      <point x="124.0" y="364.25"/>
      <point x="97.25" y="402.75"/>
      <point x="97.25" y="454.25" type="curve" smooth="yes"/>
      <point x="97.25" y="564.0" type="line" smooth="yes"/>
      <point x="97.25" y="613.5"/>
      <point x="123.25" y="649.75"/>
      <point x="173.25" y="649.75" type="curve" smooth="yes"/>
      <point x="222.75" y="649.75"/>
      <point x="249.5" y="612.0"/>
      <point x="249.5" y="562.5" type="curve" smooth="yes"/>
      <point x="249.5" y="452.75" type="line" smooth="yes"/>
      <point x="249.5" y="402.5"/>
      <point x="222.75" y="364.25"/>
    </contour>
  </outline>
</glyph>
<glyph name="zero.ss10.numr" format="2">
  <advance width="352.5"/>
  <outline>
    <contour>
      <point x="177.0" y="308.0" type="curve" smooth="yes"/>
      <point x="259.0" y="308.0"/>
      <point x="318.0" y="375.75"/>
      <point x="318.0" y="506.75" type="curve" smooth="yes"/>
      <point x="318.0" y="635.0"/>
      <point x="263.0" y="706.0"/>
      <point x="177.0" y="706.0" type="curve" smooth="yes"/>
      <point x="90.25" y="706.0"/>
      <point x="34.5" y="636.25"/>
      <point x="34.5" y="506.75" type="curve" smooth="yes"/>
      <point x="34.5" y="374.75"/>
      <point x="94.25" y="308.0"/>
    </contour>
    <contour>
      <point x="177.25" y="365.0" type="curve" smooth="yes"/>
      <point x="136.5" y="365.0"/>
      <point x="100.0" y="402.75"/>
      <point x="100.0" y="506.75" type="curve" smooth="yes"/>
      <point x="100.0" y="617.0"/>
      <point x="136.5" y="649.0"/>
      <point x="177.25" y="649.0" type="curve" smooth="yes"/>
      <point x="217.0" y="649.0"/>
      <point x="253.25" y="617.0"/>
      <point x="253.25" y="506.75" type="curve" smooth="yes"/>
      <point x="253.25" y="402.75"/>
      <point x="217.0" y="365.0"/>
    </contour>
  </outline>
</glyph>
